<mxfile host="app.diagrams.net" modified="2023-06-14T10:19:59.273Z" agent="Mozilla/5.0 (Windows NT 10.0; Win64; x64) AppleWebKit/537.36 (KHTML, like Gecko) Chrome/114.0.0.0 Safari/537.36" etag="_yqlRFiQ_cVQWF3NzFna" version="21.3.8" type="github">
  <diagram name="Side-1" id="oXAf3OvOwcJ9r6A6vzZb">
    <mxGraphModel dx="1059" dy="544" grid="1" gridSize="10" guides="1" tooltips="1" connect="1" arrows="1" fold="1" page="1" pageScale="1" pageWidth="827" pageHeight="1169" background="none" math="0" shadow="0">
      <root>
        <mxCell id="0" />
        <mxCell id="1" parent="0" />
        <mxCell id="iUPzgbDVIQlqihnZJ1oD-15" value="" style="swimlane;startSize=0;fillColor=#FF0000;labelBackgroundColor=#151d1e;gradientColor=none;shadow=0;swimlaneFillColor=#1e1943;strokeColor=#FF0000;fillStyle=solid;strokeWidth=5;labelBorderColor=#660033;" vertex="1" parent="1">
          <mxGeometry x="160" y="150" width="200" height="290" as="geometry" />
        </mxCell>
        <mxCell id="iUPzgbDVIQlqihnZJ1oD-24" value="MariaDB" style="text;html=1;strokeColor=none;fillColor=none;align=center;verticalAlign=middle;whiteSpace=wrap;rounded=0;" vertex="1" parent="iUPzgbDVIQlqihnZJ1oD-15">
          <mxGeometry x="95" y="90.00000000000003" width="60" height="30" as="geometry" />
        </mxCell>
        <mxCell id="iUPzgbDVIQlqihnZJ1oD-26" value="Apache" style="text;html=1;strokeColor=none;fillColor=none;align=center;verticalAlign=middle;whiteSpace=wrap;rounded=0;" vertex="1" parent="iUPzgbDVIQlqihnZJ1oD-15">
          <mxGeometry x="95" y="250" width="60" height="30" as="geometry" />
        </mxCell>
        <mxCell id="iUPzgbDVIQlqihnZJ1oD-16" value="" style="swimlane;startSize=0;glass=1;fillColor=#6d8764;fontColor=#ffffff;strokeColor=#FF0000;fillStyle=auto;swimlaneFillColor=#1A1A1A;strokeWidth=5;" vertex="1" parent="1">
          <mxGeometry x="540" y="150" width="200" height="400" as="geometry" />
        </mxCell>
        <mxCell id="iUPzgbDVIQlqihnZJ1oD-21" value="" style="shape=image;verticalLabelPosition=bottom;labelBackgroundColor=default;verticalAlign=top;aspect=fixed;imageAspect=0;image=data:image/png,iVBORw0KGgoAAAANSUhEUgAAAT4AAAErCAYAAABHI+8YAAAAAXNSR0IArs4c6QAAAARnQU1BAACxjwv8YQUAAAAJcEhZcwAAFiUAABYlAUlSJPAAACBaSURBVHhe7Z2Jd1THlcbnb7AkcJzYycRxYsfxkkySmXOyTJKZyWQyyeRksR0v2YwxxguYHe82scHGjs1qEPuOMIsENmCQ2DexGJBYzGaE2IwAgViEENud+qpfQ6upbi2tel3d9d1zfudo6X6v3n33fe9VvVu3/qnt8x8KIYT4BIWPEOIdFD5CiHdQ+Agh3kHhI4R4B4WPEOIdFD5CiHdQ+Agh3kHhI4R4B4WPEOIdFD5CiHdQ+Agh3kHhI4R4B4WPEOIdFD5CiHdQ+Agh3kHhI4R4B4WPEOIdFD5CiHdQ+Agh3kHhI4R4B4WPEOIdFD5CiHdQ+Agh3kHhI4R4B4WPEOIdFD5CiHdQ+Agh3kHhI4R4B4WPEOIdFD5CiHdQ+Agh3kHhI4R4B4WPEOIdFD5CiHdQ+Agh3kHhI4R4B4WPEOIdFD5CiHdQ+Agh3kHhI4R4B4WPEOIdFD5CiHdQ+Agh3kHhI4R4B4WPEOIdFD5CiHdQ+Agh3kHhI4R4B4WPEOIdFD5CiHdQ+Agh3kHhI4R4B4WPEOIdFD5CiHdQ+Agh3kHhI4R4B4WPEOIdFD5CiHdQ+Agh3kHhI4R4B4WPEOIdFD5CiHdQ+Agh3kHhI4R4B4WPEOIdFD5CiHdQ+Agh3kHhI4R4B4WPEOIdFD5CiHdQ+Agh3kHhI4R4B4WPEOIdFD5CiHdQ+Agh3kHhI4R4B4WPEOIdFD5CiHdQ+Agh3kHhI4R4B4WPEOIdFD5CiHdQ+Agh3kHhI4R4B4WPEOIdFD5CiHdQ+Agh3kHhI4R4B4WPEOIdFD5CiHdQ+Agh3kHhI4R4B4WPEOIdFD5CiHdQ+Agh3kHhI4R4B4WPEOIdFD7Satz80ly54/UF8t23S+Sng5fJEwWfyDuLdsqMzQeltKJadh89I9W19VJbf0muXBENfsbf8L816jP4LL7TQX0X28C2blfbxLZN+ySkJVD4SEp8+ZV58ov3V0j3wnIZtbpCluw+KpUnauXCpcuSqmEb+9S2luw6KiNX71X7KNP7wj5NbSGkqVD4SLO5UfH9dxZJ34WfSvmhGqk6fV7qLqYudI1Z3cVLckTtq0ztE/v+3tuLdFtMbSQkGRQ+0iS+8MJHuhv7+1FrZHb5YTl34VIgR+kztGH+9s/lgbGl8q2+C3UbTW0nJB4KH2kUPN29NHebLNt9TOpDeLJrrqFLvHZftbyi2oinQNMxEBILhY8k5CuvzJNX522XPcfOSH0rjNnZNogy2vrKvG267aZjIgRQ+Mh13PrafN2l3XywJpCUzLOtn5+S+8eUyldfnW88RuI3FD7SgJ8NXiaTN+zXaSaZbmfVMUxaXyk/HbTMeKzEXyh8RHPTix9Jpxmb5VDNObl0+UogHZlvOJZDNXXSe84W+aI6RtOxE/+g8BG5u1+xjC3d1yq5d64axihHr6mQe94sNvqA+AWFz2OQA/fr/FU6QTibnvIS2eUrV2T5nmPyq+GrjP4g/kDh8xSI3oPj1kpFdW0gC/4YjvmRCevkxhfMviHZj/fCh+BH6sPd/RbKTwYulb9NXi9vFe+QovJDeobAXnWRHD9br7tKAD/jb/gfPoPP4jsYQL9XdaPwFtH1CwrjeQ+MKZWDNecCKfDPDp+qkwfHlmpfmHzkCj7GZxh4K3yY9P6r/JU66XXy+v2y8cBJOXP+YnBZNN/qLlyS7Z+flhmbDsqr87bpbbs4sf6Wl+dKj6JyfYH4bvAB5hjDJyZfpRNf4zMsvBM+3PG6FZbJusoTcvTMeSsD+tgmto19YF+u5JLh6QbtqTl3IWgprabugvScXe7Mk5/P8RkmXggfghqP+UjX2Ke6AWEbupTPzdki336rOG0XGMb0/qi6dnzSu95O1NbLw+PWpq0LyPgMn6wXvjvfWCCvqUf7rYdPpfXNJfa9RbWhz/ztcle/hca22uQhdWEjR49mNoz56RceBt/ZhPGZHrJW+FCp477Ra2TTwZNy3qGJ9RiA3nLolL7Iwrq7ImXFx7e3zTX46H+HrzT6sLVhfKaXrBQ+VOx9b8kupwIq3tC2dxfvkm+qO77pGFoLJOwu3X002CutMSv+tEo9hdl94mF8pp+sEr6b1F0UTzfFO6qC0+e+Ld51VLfZRi053LHHlO7Tibu0ptlF9cQzeNkedT7MPk0Fxqc7ZJXw3T9mjew/cU6v5ZAphrYeOHlOHhq/1nhMqYC0FXRdaM0zPO3gRYPJp6nA+HSHrBC+m1+eK49O3qBzlTLVcLFhgZ3WyilDlZXDNXXB1mnNNRQ2+PeBS42+bS6MT/fIeOHDieg1u1xOZkFuGvLrkFaQanChnh5KS/kw/9aWwXcoapBqQVPGp5tkvPC1m7JBn5BsMRzL41M/MR5rU/nD6DW6Fh0tNTtVd0F+nZ/aW17Gp5tkrPBhoBiLzGDlrWwzjMsh764lA8p4QsHKZ+m2K1euSE3tedl3tEaWbN0nfQtXycOD5sj3nx8nX+80XG5sP1CDn/G3RwbPUZ9ZrT+L7+C72Ea6DbMbWvLUx/h0m4wVPtyJ95/M3oRcDILjbZrp2JOBNTLSaZcuX5ayyioZ8vEnWui+1W2k3PDoe80C34EQDl3wid4WtplOe/7DLUZfJ4Px6TYZKXx3vLFAFu88mlFvx5prOLZFO6v0ko4mH5jAamhYbCddtv/4KXl2XLHc1X2ktG0/yChqzaHt44P0trqMK5ED1aeDvYRvO6pO6+ooJp+bYHy6T8YJH3LT3lm0K3B/9huSSNFtMvkiFnQ7Xp67LfT0FVwAx8+ck/ziTfLlJ4caBaw1+MpTQ2VEySapPlMXuqBg/V5UcWnKXF7GZ2aQccL38Pi1Tme8t7bhWFEw1OSLWJBhv/Kz48G3wrN1ew7L/e8Vqie8gUbBak2wD+xrza5Dwd7DM1SpxowLk+9jYXxmBhklfJg8jXmEvhmKSt7VN3lX6w+j1oS62DceuiYu3yJ3dBkhOe0GGIXKBjnt3pPbu+TLpBVbdRvCMlzgvxu52uj7KIxPs19cJGOED10IVI7wcSYCjvnvH29POGkcFUXmlB8OPm3f6i9e0t3OW54cYhSnMLhFdatHLtqs2xKWFZYdSli9hfGZOD5dJGOED7XCUDbHV8Oxwwcm3+ClBsahwrJRizfLrc8MMwpSmKANEL+wnvxqlY+/+3aJ8RwwPhPHp4tkjPAh+93nmQg49p5F5Ubf9Fv4afAp+4buLZ62TEKUDvDUOXnFtqB19u2NBduN54DxmTg+XSQjhO+fX52nJ0r7bigkGl8m/MshJSzjTWrprkNye5cRRgFKJxhnXLv7cChvezcrX9/ycsOEZsZnxEzx6SoZIXzdC8sC19K6zipr4JtfvL9Cqk6fD/5rz5CygjeqYb7IaCpo0wMDinSqi207crpOfj50eYNzwPi8ZvHx6SrOCx9Wglq3rzpwKw1TqGJXx+quuhd1IbzNHV68MZSUlZaCto1atDlorT1DhZXYi5vx2dDi49NVnBc+LIOHFaHCtHP1F2XX4RP6Qnpw0Gy5p8coufHxQRr8/JD62+jFm2X35yf0Z8M0+CJaHh0BNmp1RfAfe4YZGS1KTn5soOS0HyK5HfMlr9MEyes6Vdr0nCltexep9s+JoH7G3/A/fAafxXduaNd8kf3K0+/LwRBmeIxcvVe+FFzcjM+GFhufLuO08CFTHmuA2lhiz2SXL1+R0t2HpPO4Yrmz60idM2a6wAD+d2e3kXqK1lr1nbCqHMMXWGsVvsF0Idtl5TFPFsdo8kEicjq8L7nPjFViViBtehUaz20y8B18F9vAtkz7SETX8SW6zTYNVYmRzMz4vN5i49N0bl3BaeHDoPG0jQcCl9o1nLCxS8rkru6jJMcQSInAZ+/pMVoKVm23fsFFreCT/do3SK2oPGF3ESEUCcB8WdOxx4MntbwukyNi9xye6MzntcmobWgRVNvMeWywcZ/x4PyVV9q9GWAJyO/2L2F8JrBofBrPqSM4LXxYKAdZ4bYNQYXctJs6NO3iMnFzxyEybilSGuwH1+aDNXJ3v2JdZfmCxf2hLBQqpKALZTrmqzw2SHKfHquEarbxPLYKatvYB/ZlbEMAChugzTZLWiFh96eDljI+E1g0Po3n0RGcFr6fqOA6a3mMAt0H3ElTCaooCC7cWW13K86cv6jLonectjH4ix1DTTyUljIda5ScDsOkTbdprfOE1xh4AlT7ynliuLEtUf40eI5uu01rP/UTxmcCi8an8Rw6gtPC9+jk9YEr7RnGTNB9MAVKS7i352jZsPfzYOv27K+T1ss/LFcBQUFQjBOZjhPkPjVG2vZu/hheyvQuUvsebWwTuFudz8pjdmdR9C/ZwfhMYohP47lzBKeF762SnYEb7RjeeGGguDljJo2R226A9J68RM5bnkL25sIdMmPzweA3O4ZqyKZjvOHRAarbqUTPZte2MXTXd4xui6mNS7dVBkdhx6ZvPMD4TGKIT+N5cwSnha+o3G75IaQE4O2YKUBSAXdopBLYtFllB6W0wm7+GMrFm45Pi55OSTGft9DAk58Wv+vb2K9odXAUdmz13uOMzySG+DSeM0dwWvgwSGrTkAeVLCWgpWCbYxbbzebfdOCk9WrLpvE93b1N55NePHjyM3R7/zzkw+Ao7Niuo2cYn0kM8Wk8X47gtPBVVNtN1UDypykwWgOIhk3bq3xTXWt39a5/fX5cg2PKeWKYG0968ag2oW2xbf23F8cHR2HHjp+tZ3wmMcSn8Vw5gtPCh+CyaXf3aL1B43ju7Tkm2IsdO3b2vPVSVLd1inl7+tigyNtbw3lyAbQtNtXlG53zg6OwY7X1lxifSQzxaTpPruC08Nku6viFxvLTUuCmDoOCvdgxVAS2XQYp1j+RPL0QUlZaimqbzvOL+l+13abB94zPxIb4NJ4nR6DwGYLihnYDJOfxoXrgHFOn2vaapdoTzC1VP+vpVOp/+Aw+a9pGNgkfZmQ4Na6XCNXG6AyPrBa+DIlP4zlyBHZ14wICCbl5zwbTrgxtikVPp1KfxXfit5NNXV1MGTMdv4vkPTtJtzlbu7qZFJ+mNrmC1y83UMXiWjBEctOaElDx4Du5TyFIr91dHwlh8Nj2hYeXGygS0BKfpAu0FW22/nLjjP2XG5ken6a2uILTwmc7XWD04rIgXSCakJvCGJZOq4gk1GKbY5eWB3uxY0gX2H3UbjrLI4Pn6AopTo/txYOxPtXmvwy1m86ys+o04zOJMZ0lBWwniCKJ81vdRqYeVFF0cI3S29x9xH6C6Jq9x4Lf7FjfotLIGJLpWB0GbX5zztrgKOzYqj1HGZ9JjAnMKfDmgq2BG+0YpgR1nbJSWnW+qepWdJuywnoByL4fb5UZG+wWIV3y6aHW9U1YqHOwdIfd5Tanrd/L+ExiiE/j/h3BaeH765hlgRvt2brKavmX/uYlA1sC6rStr7R7N4X9efQy6T9vU/CbHUOtv3szaMnAKDiftusUvjl3I+MziSE+Tft3BaeF78d9C+XsebuzE1Ci54ONB1pldSgUX8S2rJf9qauXH70xS9qPWhT8xY7V1F2Qv0xcZzxWl0FlkFOq7Tbt0ZHFjM8EFo1PUxtcwWnhu7PXBNm8rypwpz1DTtaEdftSqhqLwJywrtJ6bh1sU8URubPnBPlxn2lyweJCQ7g+hq/8LCMWj4mCtTCGqTbbvLbrL16SHynfMz7NFo1PUztcwWnhu/npfJm6anvgTruGgJi5+aB87+1FzVov4EYFSsDjThpGUMGmrNymfXNvr3G6Zp5Nw5q9mbRC/rffKtGr+tu0CuVz+J7xabZofJra4wpOC1/uY4PkxWnLdOntMAxdgI0HTsoLH27VF3uyAMP/8JkeReWyYf8J692HqF1QTxsvFCyT3PaD5bbO+bJ4677gP3YMF0u3wsxYKxXgfNi+wEvKK+RrnfIZnwaLjU9Tu1zBaeFDztEv+hZI1Sm7A9Xxhuk2KPk0bu0++cvE9eqOuUhufnmuBj//Vf1tvPofPoN1VsO0qppa+e83CrRvbnx8sIwosfuCA3bw5Dn5Wh/3V8j/ep+P5VCN/UXF9RrDejoZ4zPeYuPTdI5cwXnhw0I3pbvs5ktlkmGpwMjiP8jCHyBdxpeo4La/dirW742uJesiaNvYNfbXGI5WRY76n/HZ0GLj03SeXMFp4csJygxhbVBaxCIX3XvaNzntBsp//n2KHKk5G/zXnlXX1stD49Y2a3wpLNCmh8ev1W20bZ+fPCs/6zNZ+57xeb3FxqfpXLmC28KHFfWVE7/UcbAcOG5/hXzX7WD1Gb1Slg6s9kN1cGH1rTDeLGKIaF3lCbmr30LjuUonaBNy08IYxtpUUaV9rm88jM8GFh+fpnPlCm4LX8wq+t0nLgrtrZSLhmPvqrq1UX+g4oYuO6R+fn3mquBT9m3Khv1y62vujPd9VbWlYOP+oHX27bXpKyL+V75nfF4zU3yazpcrOC18uU9eW2gF8wttr5DvspVXVmkfRP0B3+QG68t+u+cYOVdvN5E21saW7pPbX//YeM7C5PbXF8joNRUSltzUnr8g9/SIrO8B3zM+r5kpPk3nzBXcFr5O4686Mu+xAfLKB8t18qhvhmN+edpy7YOrgaV8Eyk1pO6uisJ1dpc6jDUU4MRbw3Q++WHfY5To2S4GGmszS3dcXeoRvmd8RixRfJrOmys4LXx5XadedST4xrP5oYxnuWY45tu75DfwBSqQ5D1z7cL7Tf8ZoV90BRsOyN39Fob6wgP7wj4LNh4IWhGOwbf/99b0a/5XFzbjM2KJ4tN0/lzBaeFr03Om3NBuYAOHPvBeofXFkF0ypKrcp4451gfwCXyT13XK1b/d1nm4LN8e3lhX1JAcizeqYaS6YB/Y17p9dtcTNhkWKI9dfAmix/hMHp+mc+gKbgtfr0LJefzaADLA4/RbRWsCt2e/vT2ntEEXAuiqyL0LIxeezidTXYt2A+T5qUtDf+rDm1SkkaDbeVsfe+N+SE7GPrCvsF8hQMh6T1mifRw5BwO07xmfyePTdB5dwWnhixZOjHUqwJ23uLwitGk46bAr6tgW6qlRMUs8BsAn8I2+8IKUCoB1FGyvkJ/MDtWck+6FZXq+bGs8AaI4wnfUtjDtKowZGYls1+FquSdm/Qv4XJeAZ3wmjU/TOXUFt4VPkdd5onJmwzsK+J++06TymN3J6Ok0HBuOMTqYfhX11AGfaP/ohbQbjq28WGC/RlwyQ1oDigQMW/GZLg8F4cJE+fjzmgh89jv9S/R3URkG20p3mgie9mJ9nNMxX/se7WV8NjzuBvHpMM4LX5vu0xssFB0Fj9e/+8csqbNcSTYdhmP67TszJTeuC6FRvoBPtH+wvsTTWEfh2v+/+MRgXRYo3YaHHdTEQ0HQZXuOSf+SnVrMfvjeErnzjQX6aQ7gZ/ztb+p/+Mxy9Vl8B9914YEJ09Hg01gfx5aCZ3w2PO4G8ekwzgsf1gqN5quZwKIyJ2vPB6ck8+1kbZ08Omyu8VgBfBFZQzXin7xnJ+u7bOxnfv3WdF0MkpaanTxbJz/XE+6v+VY/0TRYbpPxGUt8fLpKBggfLu7IWqkmvtBhkM6aP6GCNNMNF0iPSYv1MZmOFeQpoYv1TZse0yW6iHaUm58cIhOWbfF6JkGqdunyZV35Jv5pD75u02NGg3PA+LxGXlx8ukpGCB8GSmMH8eNBNQjcWW0voGLTUD4Id9JkQYWL7rpBY3R3Y6ZORfnRKxPlULXd5Sez2Q5Un5YfvDThOr/C19eteMb41Bjj01EyQ/gUye6qUX73zkypPFqTUW/T8HYMA8Vou+mYYoEPjL7pfP0FClA1xMeZBKka0lc6jpxv9Cl8bTwHjM+E8ekiGSN8ppypeDDYiiKI8zbtCT3Xq6W2aMs++WW/adflQsWDY9cpFAbftO01SyeNxn8H20R3jV3ephuqKQ+Yty4mZy8G5WP42nQOGJ9J4tNBMkb4MGCqn2xMARnHrc8Mk/5zSp3OoEfGe//ZpXrGxXUpAfHoFAE8aSQeNI6dMB/L7V1GyMIy+wU6s8U+3rxXvq7OicmXOj/N4PsIjM9MeKkRJYOET4G8NcN4lgncsX/79kzZWHHEqQBD1xNVPB4cWNToXTQKjjmaN5aINt0/SHjRoTz63qqTQQtoiewz5aOfvx73FjeK8i18bPL9VRifGUNmCZ+iTbdpTbqrRsHd+6Vpy/TJTGeXD/suq6zSFTziJ3QnBRecOmaTLxqAiy5JWsV97xbKwWoWy0xkh0+ckfvj55zGgETxplzcjM/MIOOED6AyhvEkJAB3LtQKe2rUAr00YNiG6rw9Jy3WbWjqXTQKKrCYfGBCzyJIcNGhu/L7f8ySY6fPBa2iRe3Y6Vrtm5x21/tNo3zanIF7xqf7ZKTw6aebjs24K8WAMuFYFwAZ+VgR6sKl1u9mYJvYNvaBfWGfprY0RuzUqCbRS128SdIqENR405tNCbWpWo3yRdcJi5Je8Ki2nOilhhHGp/NkpvApMC0m2UXeGMitwhs2rAE6cflW+WTvkZRmO2AweNuBY/LBmk/1WqvYdmS1KfP+G0NPhG/B1J/I3FHzNgHysCB+YS+J6KLhSQ+r1CXLTQMtSdNgfLpNxgofwNhCTjPGU0yge4Ps/Du6jNAJq38a8qG8MWuVzFy7Qw88Y8AbF8j5i5c0+Bl/w/9QkReffWTwHPnhyxN1VwGzJlJvUwrjJs/NEax3YNpuFDzdIC/L5zE/jOnd9+6sRrt2OU8Muz5huYkwPt0lo4UPtOlaIKYctowFRRy7TjUea1OJvOFN7hNcUCgg6ePbXhzzHweq7mgjAoCV1DAl0OTjpsL4dJOMFz7cjdEVia5xmtGooNLdqhY+YVzlOdSJiyyK0xjo8ny0cY9cUE8L2W5ITp6/6bPEKSsNGNCgCkuLYXw6SeYLH1AnAnfWVB/h04nuPuBO2kpBhQrBOe2bNmiNwpnvfrROjwNlqyFXbtD89QmTk+OB71qtfDrj0zmyQ/gC9JhKCgPK6UIPFHdrJDm2BeQZSlYlAgm17fPn6XE/VCbJFruojgULXT87rsQ8Dc0ELvIuU4w+TQXGpztklfABvGnK7TjCeAJdBCkBjc4ISIHcp8ca95uIH7w0UfKLN+ladJlup87Vy+jFZcYqK4lRXdxnxhl92RowPt0g64RP07sosvRiU+/w6UC1DYmu1vOg1Pabe6HhLeJ/vT5VVuwIdwnH1rSNe4/o0uhf6ti8Jyz4KoxzwvhML9kpfAG4U+m5ky4FmGqLrmQRYjqALlbagi4WBLDX5MXy6aHjGVFLDuN4WBgIa2TEFxBtCrpLl+Jb3ObA+EwfWS18GtxdO09stGRQGKANuopFGu6ienwprlJzU/lm1xE60XdB2V4n15DAxPrVOw/q5TVjV0NrDrqycjoudsZnWsh+4dPM0bXCsFZCOgaXsU+kAUTqlaXvrRgubNPCOE0Bb/W++sww+WW/D2TS8q1y5vyFQHbSZ7X1F6Rw3U75Tf/p8o1n85v+8iIe5Oul9QmH8Rk2nghfDM/N1idZLxADEbDRzcA21baxjzysQeBQOW60J9WEWhQ8uLfHaOkzY6VsqqiSIyfPhvIkiO7252pf2Odr01eop7vRjdeKa4xobporF7zn8RkW/gnfVdRdtvt03c1Asq+e5pWKIKhgwmT23KdG6W1G5jE6ePd8Dgm1SvxwUZmOo5nc1GGw/EefKXqy+/DiTbJoS4WuMNIaJe+xDWyrRG1zePFGvY+fqX1hn6a2NBvlgzx94bv4lONpfIaEx8IXAwK/d5FOWM3rWiC5ncbrisYItpz2Q4Ose9x5VfCon/Xf1P/wGXwW38F3dVchQ+6eyMtq6ZhfIto+Pki+1mmYfhLD3NB2w+bKm0VrpGD1dlm544DsPFwtKIuFbjLWnQD4GX/D//AZfLZf0Wq9sA22gW3dqrbZtn3rTvtK25heS/AwPm1D4fMY/cIjDWNK6QbH3KZbgdEnxA8ofJ6D9I1Inp+FsSTnGKCPNcyUFeImFD6iu1GYrWBlIN0V1LHpGRkepGqQxqHwkau06TpFdQMx7pdNAjhAH1MeXmIYjpn4CYWPNACD4Jjfmw1llHLaDdSlpXBMpmMl/kLhI9fz3JzINLcnWrZuhAvgraZO2eBbTGKAwkcSo3P+Jun8r4wY/wty1XRCspO5ecQVKHykcXoX6TGyHLz9TXHWhxUgeJiF0Hli81ZDI95C4SNNp/ds3X3UZe1dEECM4T05UrXpA76tJc2CwkdahnqyQiWP3A7vR2aAhNEVxpOd2hf2qauI8OmOtBAKH0mN4EVInuoK4w0qKvZGZoO0hhAiFWWI3ia2jeolOvmY43ckRSh8pPWAIGFOaa/CYF7pVF3FFxPjUQkELx70XNKYbjJ+1n/DBHr1GT2JXs8vnXptfim6sRQ70opQ+Agh3kHhI4R4B4WPEOIdFD5CiHdQ+Agh3kHhI4R4B4WPEOIdFD5CiHdQ+Agh3kHhI4R4B4WPEOIdFD5CiHdQ+Agh3kHhI4R4B4WPEOIdFD5CiHdQ+Agh3kHhI4R4B4WPEOIdFD5CiHdQ+Agh3kHhI4R4B4WPEOIdFD5CiHdQ+Agh3kHhI4R4B4WPEOIdFD5CiHdQ+Agh3kHhI4R4B4WPEOIdFD5CiHdQ+Agh3kHhI4R4B4WPEOIdFD5CiHdQ+Agh3kHhI4R4B4WPEOIdFD5CiHdQ+Agh3kHhI4R4B4WPEOIdFD5CiHdQ+Agh3kHhI4R4B4WPEOIdFD5CiHdQ+Agh3kHhI4R4B4WPEOIdFD5CiHdQ+Agh3kHhI4R4B4WPEOIdFD5CiHdQ+Agh3kHhI4R4B4WPEOIdFD5CiHdQ+Agh3kHhI4R4B4WPEOIdFD5CiHdQ+Agh3kHhI4R4B4WPEOIdFD5CiHdQ+Agh3kHhI4R4B4WPEOIdFD5CiHdQ+Agh3kHhI4R4B4WPEOIdFD5CiHdQ+Agh3kHhI4R4B4WPEOIdFD5CiHdQ+Agh3kHhI4R4B4WPEOIdFD5CiHdQ+Agh3kHhI4R4B4WPEOIdFD5CiHdQ+Agh3kHhI4R4B4WPEOIdFD5CiHdQ+AghnvGh/D9Sq3JxzTjHoQAAAABJRU5ErkJggg==;" vertex="1" parent="iUPzgbDVIQlqihnZJ1oD-16">
          <mxGeometry x="30" y="173" width="80" height="75.21" as="geometry" />
        </mxCell>
        <mxCell id="iUPzgbDVIQlqihnZJ1oD-22" value="Nextcloud" style="text;html=1;strokeColor=none;fillColor=none;align=center;verticalAlign=middle;whiteSpace=wrap;rounded=0;" vertex="1" parent="iUPzgbDVIQlqihnZJ1oD-16">
          <mxGeometry x="40" y="248.21000000000004" width="60" height="30" as="geometry" />
        </mxCell>
        <mxCell id="iUPzgbDVIQlqihnZJ1oD-23" value="MariaDB" style="text;html=1;strokeColor=none;fillColor=none;align=center;verticalAlign=middle;whiteSpace=wrap;rounded=0;" vertex="1" parent="iUPzgbDVIQlqihnZJ1oD-16">
          <mxGeometry x="40" y="90.00000000000003" width="60" height="30" as="geometry" />
        </mxCell>
        <mxCell id="cIE6yQvn2pVQJn3zK8SZ-2" value="" style="image;aspect=fixed;perimeter=ellipsePerimeter;html=1;align=center;shadow=0;dashed=0;spacingTop=3;image=img/lib/active_directory/sql_server.svg;" parent="1" vertex="1">
          <mxGeometry x="827" y="230" width="77" height="100" as="geometry" />
        </mxCell>
        <mxCell id="cIE6yQvn2pVQJn3zK8SZ-3" value="" style="swimlane;startSize=0;" parent="1" vertex="1">
          <mxGeometry x="240" y="320" width="90" height="80" as="geometry" />
        </mxCell>
        <mxCell id="cIE6yQvn2pVQJn3zK8SZ-16" value="" style="dashed=0;outlineConnect=0;html=1;align=center;labelPosition=center;verticalLabelPosition=bottom;verticalAlign=top;shape=mxgraph.webicons.apache;gradientColor=#DFDEDE" parent="cIE6yQvn2pVQJn3zK8SZ-3" vertex="1">
          <mxGeometry width="90" height="80" as="geometry" />
        </mxCell>
        <mxCell id="cIE6yQvn2pVQJn3zK8SZ-8" value="" style="swimlane;startSize=0;" parent="1" vertex="1">
          <mxGeometry x="240" y="160" width="90" height="80" as="geometry" />
        </mxCell>
        <mxCell id="cIE6yQvn2pVQJn3zK8SZ-10" value="" style="sketch=0;outlineConnect=0;fontColor=#ffffff;fillColor=#e51400;strokeColor=#B20000;dashed=0;verticalLabelPosition=bottom;verticalAlign=top;align=center;html=1;fontSize=12;fontStyle=0;aspect=fixed;pointerEvents=1;shape=mxgraph.aws4.rds_mariadb_instance;" parent="cIE6yQvn2pVQJn3zK8SZ-8" vertex="1">
          <mxGeometry x="15" y="10" width="60" height="60" as="geometry" />
        </mxCell>
        <mxCell id="iUPzgbDVIQlqihnZJ1oD-1" value="" style="swimlane;startSize=0;" vertex="1" parent="1">
          <mxGeometry x="560" y="160" width="90" height="80" as="geometry" />
        </mxCell>
        <mxCell id="iUPzgbDVIQlqihnZJ1oD-2" value="" style="sketch=0;outlineConnect=0;fontColor=#ffffff;fillColor=#e51400;strokeColor=#B20000;dashed=0;verticalLabelPosition=bottom;verticalAlign=top;align=center;html=1;fontSize=12;fontStyle=0;aspect=fixed;pointerEvents=1;shape=mxgraph.aws4.rds_mariadb_instance;" vertex="1" parent="iUPzgbDVIQlqihnZJ1oD-1">
          <mxGeometry x="15" y="10" width="60" height="60" as="geometry" />
        </mxCell>
        <mxCell id="iUPzgbDVIQlqihnZJ1oD-5" value="" style="shape=image;html=1;verticalAlign=top;verticalLabelPosition=bottom;labelBackgroundColor=#ffffff;imageAspect=0;aspect=fixed;image=https://cdn1.iconfinder.com/data/icons/Futurosoft%20Icons%200.5.2/128x128/apps/tux.png" vertex="1" parent="1">
          <mxGeometry x="840" y="290" width="30" height="30" as="geometry" />
        </mxCell>
        <mxCell id="iUPzgbDVIQlqihnZJ1oD-8" value="" style="swimlane;startSize=0;" vertex="1" parent="1">
          <mxGeometry x="560" y="320" width="97.5" height="80" as="geometry" />
        </mxCell>
        <mxCell id="iUPzgbDVIQlqihnZJ1oD-17" value="Lokalt Database med kundeoplysninger" style="text;html=1;strokeColor=none;fillColor=none;align=center;verticalAlign=middle;whiteSpace=wrap;rounded=0;" vertex="1" parent="1">
          <mxGeometry x="515" y="120" width="250" height="30" as="geometry" />
        </mxCell>
        <mxCell id="iUPzgbDVIQlqihnZJ1oD-19" value="Web-server med database og CMS system&amp;nbsp;" style="text;html=1;strokeColor=none;fillColor=none;align=center;verticalAlign=middle;whiteSpace=wrap;rounded=0;" vertex="1" parent="1">
          <mxGeometry x="134" y="120" width="250" height="30" as="geometry" />
        </mxCell>
        <mxCell id="iUPzgbDVIQlqihnZJ1oD-25" value="Rocky Linux server" style="text;html=1;strokeColor=none;fillColor=none;align=center;verticalAlign=middle;whiteSpace=wrap;rounded=0;" vertex="1" parent="1">
          <mxGeometry x="8.95" y="330" width="120" height="30" as="geometry" />
        </mxCell>
        <mxCell id="iUPzgbDVIQlqihnZJ1oD-29" value="" style="image;aspect=fixed;perimeter=ellipsePerimeter;html=1;align=center;shadow=0;dashed=0;spacingTop=3;image=img/lib/active_directory/database_server.svg;" vertex="1" parent="1">
          <mxGeometry x="30" y="235" width="77.9" height="95" as="geometry" />
        </mxCell>
        <mxCell id="iUPzgbDVIQlqihnZJ1oD-30" value="" style="shape=image;html=1;verticalAlign=top;verticalLabelPosition=bottom;labelBackgroundColor=#ffffff;imageAspect=0;aspect=fixed;image=https://cdn1.iconfinder.com/data/icons/Futurosoft%20Icons%200.5.2/128x128/apps/tux.png" vertex="1" parent="1">
          <mxGeometry x="40.00000000000004" y="300" width="30" height="30" as="geometry" />
        </mxCell>
        <mxCell id="iUPzgbDVIQlqihnZJ1oD-31" value="Rocky Linux server" style="text;html=1;strokeColor=none;fillColor=none;align=center;verticalAlign=middle;whiteSpace=wrap;rounded=0;" vertex="1" parent="1">
          <mxGeometry x="805.5" y="330" width="120" height="30" as="geometry" />
        </mxCell>
      </root>
    </mxGraphModel>
  </diagram>
</mxfile>
